<?xml version="1.0" encoding="UTF-8"?>
<svg width="209px" height="90px" viewBox="0 0 209 90" version="1.1" xmlns="http://www.w3.org/2000/svg" xmlns:xlink="http://www.w3.org/1999/xlink">
    <!-- Generator: sketchtool 52.5 (67469) - http://www.bohemiancoding.com/sketch -->
    <title>42F15704-2212-41CE-92D5-AFAE68A8F8B2</title>
    <desc>Created with sketchtool.</desc>
    <defs>
        <filter x="-45.6%" y="-154.0%" width="191.1%" height="408.0%" filterUnits="objectBoundingBox" id="filter-1">
            <feOffset dx="10" dy="20" in="SourceAlpha" result="shadowOffsetOuter1"></feOffset>
            <feGaussianBlur stdDeviation="10" in="shadowOffsetOuter1" result="shadowBlurOuter1"></feGaussianBlur>
            <feColorMatrix values="0 0 0 0 0   0 0 0 0 0   0 0 0 0 0  0 0 0 0.15 0" type="matrix" in="shadowBlurOuter1" result="shadowMatrixOuter1"></feColorMatrix>
            <feMerge>
                <feMergeNode in="shadowMatrixOuter1"></feMergeNode>
                <feMergeNode in="SourceGraphic"></feMergeNode>
            </feMerge>
        </filter>
        <polygon id="path-2" points="84.5001878 0 169 0 169 50 84.5001878 50 0.000375555556 50 0.000375555556 0"></polygon>
        <polygon id="path-4" points="0 50 169 50 169 0 0 0"></polygon>
    </defs>
    <g id="Page-1" stroke="none" stroke-width="1" fill="none" fill-rule="evenodd">
        <g id="05-Kazoops-website-design-system" transform="translate(-358.000000, -2186.000000)">
            <g id="app-store" filter="url(#filter-1)" transform="translate(368.000000, 2186.000000)">
                <g id="Group-3">
                    <mask id="mask-3" fill="white">
                        <use xlink:href="#path-2"></use>
                    </mask>
                    <g id="Clip-2"></g>
                    <path d="M162.987731,50 L5.92038296,50 C2.65555333,50 0.000375555556,47.34 0.000375555556,44.08375 L0.000375555556,5.9075 C0.000375555556,2.65 2.65555333,0 5.92038296,0 L162.987731,0 C166.248805,0 169.000376,2.65 169.000376,5.9075 L169.000376,44.08375 C169.000376,47.34 166.248805,50 162.987731,50" id="Fill-1" fill="#B5B5B5" mask="url(#mask-3)"></path>
                </g>
                <path d="M167.788458,44.0845 C167.788458,46.7295 165.642784,48.872 162.988858,48.872 L5.92025778,48.872 C3.2675837,48.872 1.11439852,46.7295 1.11439852,44.0845 L1.11439852,5.907 C1.11439852,3.262 3.2675837,1.112 5.92025778,1.112 L162.987606,1.112 C165.642784,1.112 167.787206,3.262 167.787206,5.907 L167.787206,44.0845 L167.788458,44.0845 Z" id="Fill-4" fill="#000000"></path>
                <path d="M37.7156674,24.729625 C37.6793637,20.700875 41.0193044,18.740875 41.1720304,18.649625 C39.2804822,15.895875 36.3486452,15.518375 35.3183711,15.489625 C32.8559785,15.230875 30.4674452,16.960875 29.2130896,16.960875 C27.933697,16.960875 26.0020896,15.514625 23.92026,15.558375 C21.2425489,15.599625 18.7350896,17.148375 17.3605563,19.552125 C14.5251119,24.455875 16.6407415,31.662125 19.35726,35.625875 C20.7167711,37.567125 22.3053711,39.734625 24.384697,39.658375 C26.4189563,39.573375 27.1775785,38.363375 29.6337119,38.363375 C32.06606,38.363375 32.7796156,39.658375 34.9002526,39.609625 C37.0834822,39.573375 38.4580156,37.659625 39.7699563,35.700875 C41.3410304,33.475875 41.9719637,31.284625 41.9970007,31.172125 C41.9456748,31.154625 37.7569785,29.559625 37.7156674,24.729625" id="Fill-6" fill="#FFFFFF"></path>
                <path d="M33.7094911,12.88275 C34.8036096,11.5165 35.552217,9.65775 35.3444096,7.7715 C33.760817,7.8415 31.7803874,8.864 30.6399504,10.2015 C29.6309578,11.379 28.7296244,13.309 28.9624689,15.124 C30.7413504,15.25525 32.5678022,14.22775 33.7094911,12.88275" id="Fill-8" fill="#FFFFFF"></path>
                <path d="M62.2863896,32.443875 L60.8768044,28.100125 C60.7290859,27.656375 60.4486711,26.611375 60.0368119,24.966375 L59.9867378,24.966375 C59.8227452,25.675125 59.5586044,26.718875 59.1968193,28.100125 L57.8122711,32.443875 L62.2863896,32.443875 Z M67.1560933,39.380125 L64.3131378,39.380125 L62.7558341,34.493875 L57.3428267,34.493875 L55.8593822,39.380125 L53.0915378,39.380125 L58.4544711,22.745125 L61.7668711,22.745125 L67.1560933,39.380125 Z" id="Fill-10" fill="#FFFFFF"></path>
                <path d="M78.2284726,33.3325 C78.2284726,32.165 77.9655837,31.2025 77.4373022,30.445 C76.8601985,29.65625 76.0865541,29.26 75.1138652,29.26 C74.4553911,29.26 73.8570059,29.48 73.3224652,29.915 C72.7866726,30.35125 72.4361541,30.9225 72.2721615,31.63125 C72.1895393,31.96 72.1482281,32.23125 72.1482281,32.44375 L72.1482281,34.44375 C72.1482281,35.31625 72.4161244,36.0525 72.951917,36.6525 C73.4864578,37.25375 74.1837393,37.55375 75.0400059,37.55375 C76.045243,37.55375 76.8276504,37.16625 77.38848,36.39375 C77.9480578,35.62 78.2284726,34.6 78.2284726,33.3325 M80.9474948,33.235 C80.9474948,35.275 80.3954281,36.8875 79.2912948,38.07125 C78.3023319,39.125 77.075517,39.65125 75.6083467,39.65125 C74.0272578,39.65125 72.8893244,39.08375 72.1983022,37.9475 L72.1482281,37.9475 L72.1482281,44.26625 L69.47928,44.26625 L69.47928,31.33375 C69.47928,30.05125 69.44548,28.735 69.3803837,27.385 L71.7276059,27.385 L71.8765763,29.28625 L71.9253985,29.28625 C72.8154652,27.85375 74.1662133,27.13875 75.9788948,27.13875 C77.397243,27.13875 78.5789911,27.6975 79.526643,28.81625 C80.4742948,29.93625 80.9474948,31.40875 80.9474948,33.235" id="Fill-12" fill="#FFFFFF"></path>
                <path d="M92.0452867,33.3325 C92.0452867,32.165 91.7811459,31.2025 91.2528644,30.445 C90.6757607,29.65625 89.9033681,29.26 88.9306793,29.26 C88.2697015,29.26 87.67382,29.48 87.1380274,29.915 C86.6022348,30.35125 86.25422,30.9225 86.0889756,31.63125 C86.0063533,31.96 85.9650422,32.23125 85.9650422,32.44375 L85.9650422,34.44375 C85.9650422,35.31625 86.2329385,36.0525 86.7662274,36.6525 C87.30202,37.25375 87.9993015,37.55375 88.85682,37.55375 C89.862057,37.55375 90.6444644,37.16625 91.2040422,36.39375 C91.76362,35.62 92.0452867,34.6 92.0452867,33.3325 M94.7643089,33.235 C94.7643089,35.275 94.2109904,36.8875 93.106857,38.07125 C92.1191459,39.125 90.8910793,39.65125 89.4239089,39.65125 C87.84282,39.65125 86.7048867,39.08375 86.0138644,37.9475 L85.9650422,37.9475 L85.9650422,44.26625 L83.2960941,44.26625 L83.2960941,31.33375 C83.2960941,30.05125 83.2622941,28.735 83.1971978,27.385 L85.54442,27.385 L85.6933904,29.28625 L85.7422126,29.28625 C86.6322793,27.85375 87.9817756,27.13875 89.7957089,27.13875 C91.2115533,27.13875 92.3945533,27.6975 93.343457,28.81625 C94.289857,29.93625 94.7643089,31.40875 94.7643089,33.235" id="Fill-14" fill="#FFFFFF"></path>
                <path d="M110.21191,34.715625 C110.21191,36.130625 109.719933,37.281875 108.732221,38.170625 C107.646866,39.141875 106.135881,39.626875 104.194259,39.626875 C102.402859,39.626875 100.964481,39.280625 99.8766215,38.590625 L100.495036,36.368125 C101.66677,37.076875 102.952421,37.430625 104.353244,37.430625 C105.358481,37.430625 106.140888,37.203125 106.70297,36.750625 C107.263799,36.298125 107.54171,35.690625 107.54171,34.933125 C107.54171,34.258125 107.312621,33.689375 106.849436,33.226875 C106.390007,32.765625 105.622621,32.338125 104.552288,31.940625 C101.634221,30.854375 100.177066,29.264375 100.177066,27.170625 C100.177066,25.803125 100.689073,24.681875 101.710584,23.808125 C102.729592,22.935625 104.089103,22.498125 105.789118,22.498125 C107.30511,22.498125 108.564473,22.761875 109.568459,23.288125 L108.901221,25.460625 C107.962333,24.950625 106.900762,24.694375 105.712755,24.694375 C104.773866,24.694375 104.040281,24.925625 103.514503,25.386875 C103.070096,25.798125 102.847266,26.299375 102.847266,26.891875 C102.847266,27.549375 103.101392,28.093125 103.613399,28.520625 C104.057807,28.915625 104.865251,29.343125 106.035733,29.804375 C107.469103,30.380625 108.52191,31.054375 109.199162,31.826875 C109.87391,32.601875 110.21191,33.564375 110.21191,34.715625" id="Fill-16" fill="#FFFFFF"></path>
                <path d="M119.035964,29.38475 L116.094112,29.38475 L116.094112,35.2085 C116.094112,36.68975 116.612379,37.431 117.652667,37.431 C118.128371,37.431 118.525208,37.3885 118.838171,37.30725 L118.910779,39.331 C118.385001,39.52725 117.693979,39.626 116.835208,39.626 C115.781149,39.626 114.95743,39.306 114.364053,38.66475 C113.771927,38.02225 113.473986,36.94475 113.473986,35.431 L113.473986,29.38475 L111.720141,29.38475 L111.720141,27.38475 L113.473986,27.38475 L113.473986,25.1885 L116.094112,24.3985 L116.094112,27.38475 L119.035964,27.38475 L119.035964,29.38475 Z" id="Fill-18" fill="#FFFFFF"></path>
                <path d="M129.539752,33.370375 C129.539752,32.264125 129.303152,31.315375 128.823693,30.524125 C128.262863,29.566625 127.464181,29.087875 126.427648,29.087875 C125.353559,29.087875 124.539856,29.566625 123.980278,30.524125 C123.500819,31.315375 123.262967,32.280375 123.262967,33.420375 C123.262967,34.526625 123.500819,35.475375 123.980278,36.265375 C124.557381,37.222875 125.363574,37.701625 126.402611,37.701625 C127.42287,37.701625 128.221552,37.214125 128.798656,36.241625 C129.293137,35.432875 129.539752,34.475375 129.539752,33.370375 M132.3101,33.284125 C132.3101,35.126625 131.781819,36.640375 130.727759,37.824125 C129.622374,39.042875 128.156456,39.650375 126.3275,39.650375 C124.563641,39.650375 123.160315,39.067875 122.113767,37.899125 C121.067219,36.730375 120.543944,35.257875 120.543944,33.481625 C120.543944,31.622875 121.082241,30.100375 122.162589,28.915375 C123.241685,27.730375 124.696337,27.139125 126.525293,27.139125 C128.2879,27.139125 129.706248,27.721625 130.776581,28.891625 C131.799344,30.026625 132.3101,31.490375 132.3101,33.284125" id="Fill-20" fill="#FFFFFF"></path>
                <path d="M140.984933,29.729 C140.720792,29.68025 140.439125,29.65525 140.143688,29.65525 C139.204799,29.65525 138.478725,30.01025 137.96797,30.71775 C137.52231,31.34275 137.300733,32.13275 137.300733,33.0865 L137.300733,39.38025 L134.633036,39.38025 L134.656821,31.1615 C134.656821,29.779 134.623021,28.52025 134.556673,27.38525 L136.882614,27.38525 L136.980259,29.68025 L137.052866,29.68025 C137.334533,28.8915 137.77894,28.2565 138.388592,27.78025 C138.98197,27.35275 139.625421,27.139 140.317696,27.139 C140.56431,27.139 140.78714,27.15525 140.984933,27.18775 L140.984933,29.729 Z" id="Fill-22" fill="#FFFFFF"></path>
                <path d="M150.3762,32.124 C150.393726,31.334 150.219719,30.6515 149.857933,30.07525 C149.396,29.33525 148.6862,28.96525 147.731037,28.96525 C146.857244,28.96525 146.148696,29.3265 145.605393,30.0515 C145.160985,30.62775 144.896844,31.31775 144.816726,32.124 L150.3762,32.124 Z M152.921215,32.81525 C152.921215,33.29275 152.889919,33.69525 152.82357,34.024 L144.816726,34.024 C144.848022,35.209 145.234844,36.114 145.977193,36.739 C146.651941,37.299 147.525733,37.57775 148.596067,37.57775 C149.78157,37.57775 150.86317,37.389 151.835859,37.01025 L152.253978,38.8615 C151.117296,39.35525 149.775311,39.6015 148.22677,39.6015 C146.364015,39.6015 144.901852,39.05525 143.837778,37.96025 C142.777459,36.8665 142.24417,35.39775 142.24417,33.55525 C142.24417,31.74525 142.7374,30.239 143.727615,29.03775 C144.7654,27.75525 146.166222,27.114 147.92883,27.114 C149.660141,27.114 150.97083,27.75525 151.860896,29.03775 C152.566941,30.059 152.921215,31.31775 152.921215,32.81525 Z" id="Fill-24" fill="#FFFFFF"></path>
                <path d="M60.0197867,12.547625 C60.0197867,11.593875 59.7669126,10.862625 59.2611644,10.352625 C58.7541644,9.843875 58.0155719,9.588875 57.0441348,9.588875 C56.6310237,9.588875 56.2792533,9.617625 55.9875719,9.673875 L55.9875719,15.785125 C56.1490607,15.808875 56.4457496,15.821375 56.873883,15.821375 C57.8778681,15.821375 58.6527644,15.542625 59.1998237,14.985125 C59.7456311,14.426375 60.0197867,13.615125 60.0197867,12.547625 M61.403083,12.511375 C61.403083,13.982625 60.9624311,15.090125 60.0798756,15.833875 C59.2624163,16.520125 58.1006978,16.863875 56.5959719,16.863875 C55.8498681,16.863875 55.2101719,16.831375 54.676883,16.767625 L54.676883,8.727625 C55.3729126,8.615125 56.1252756,8.558875 56.9352237,8.558875 C58.3685941,8.558875 59.4489422,8.870125 60.17752,9.492625 C60.9937274,10.195125 61.403083,11.201375 61.403083,12.511375" id="Fill-26" fill="#FFFFFF"></path>
                <path d="M67.37692,13.839125 C67.37692,13.295375 67.2592459,12.829125 67.0251496,12.440375 C66.7497422,11.970375 66.3579126,11.735375 65.847157,11.735375 C65.3201274,11.735375 64.9195348,11.970375 64.6441274,12.440375 C64.4100311,12.829125 64.292357,13.304125 64.292357,13.862875 C64.292357,14.406625 64.4100311,14.872875 64.6441274,15.261625 C64.9282978,15.731625 65.323883,15.966625 65.8358904,15.966625 C66.3366311,15.966625 66.7284607,15.727875 67.0126311,15.249125 C67.2554904,14.852875 67.37692,14.382875 67.37692,13.839125 M68.737683,13.796625 C68.737683,14.701625 68.4785496,15.445375 67.960283,16.026625 C67.4169793,16.625375 66.6971644,16.925375 65.7983348,16.925375 C64.9320533,16.925375 64.242283,16.637875 63.7277719,16.064125 C63.2145126,15.490375 62.957883,14.766625 62.957883,13.892875 C62.957883,12.980375 63.2220237,12.232875 63.7528089,11.650375 C64.2823422,11.067875 64.9971496,10.777875 65.8947274,10.777875 C66.7622607,10.777875 67.4570385,11.064125 67.9840681,11.637875 C68.4860607,12.196625 68.737683,12.915375 68.737683,13.796625" id="Fill-28" fill="#FFFFFF"></path>
                <path d="M78.5726067,10.8985 L76.7261252,16.791 L75.5255993,16.791 L74.7594659,14.23225 C74.5654289,13.59475 74.4076956,12.95975 74.2850141,12.32975 L74.2624807,12.32975 C74.1485622,12.976 73.9908289,13.611 73.7880289,14.23225 L72.9743252,16.791 L71.7600289,16.791 L70.0237104,10.8985 L71.3719548,10.8985 L72.0391919,13.69975 C72.2006807,14.36225 72.3346289,14.99225 72.4410363,15.591 L72.4635696,15.591 C72.5612141,15.0985 72.722703,14.471 72.95054,13.711 L73.7880289,10.8985 L74.8558585,10.8985 L75.6582956,13.651 C75.8523326,14.32225 76.0100659,14.9685 76.1314956,15.591 L76.1677993,15.591 C76.2566807,14.98475 76.3906289,14.3385 76.5696437,13.651 L77.285703,10.8985 L78.5726067,10.8985 Z" id="Fill-30" fill="#FFFFFF"></path>
                <path d="M85.3735422,16.791375 L84.0616015,16.791375 L84.0616015,13.416375 C84.0616015,12.376375 83.6660163,11.856375 82.8723422,11.856375 C82.4830163,11.856375 82.1675496,11.998875 81.9246904,12.285125 C81.683083,12.571375 81.5604015,12.908875 81.5604015,13.296375 L81.5604015,16.791375 L80.2484607,16.791375 L80.2484607,12.583875 C80.2484607,12.066375 80.2321867,11.505125 80.2008904,10.898875 L81.3538459,10.898875 L81.4151867,11.818875 L81.4514904,11.818875 C81.6042163,11.533875 81.8320533,11.296375 82.1312459,11.108875 C82.4867719,10.887625 82.8848607,10.777625 83.3205052,10.777625 C83.8725719,10.777625 84.3294978,10.955125 84.6937867,11.311375 C85.146957,11.747625 85.3735422,12.397625 85.3735422,13.262625 L85.3735422,16.791375 Z" id="Fill-32" fill="#FFFFFF"></path>
                <mask id="mask-5" fill="white">
                    <use xlink:href="#path-4"></use>
                </mask>
                <g id="Clip-35"></g>
                <polygon id="Fill-34" fill="#FFFFFF" mask="url(#mask-5)" points="87.6809556 16.79125 88.9916444 16.79125 88.9916444 8.195 87.6809556 8.195"></polygon>
                <path d="M95.3534304,13.839125 C95.3534304,13.295375 95.2357563,12.829125 95.00166,12.440375 C94.7275044,11.970375 94.334423,11.735375 93.8249193,11.735375 C93.2966378,11.735375 92.8960452,11.970375 92.6218896,12.440375 C92.3877933,12.829125 92.2701193,13.304125 92.2701193,13.862875 C92.2701193,14.406625 92.3877933,14.872875 92.6218896,15.261625 C92.90606,15.731625 93.3016452,15.966625 93.8136526,15.966625 C94.3143933,15.966625 94.7049711,15.727875 94.9891415,15.249125 C95.2332526,14.852875 95.3534304,14.382875 95.3534304,13.839125 M96.7154452,13.796625 C96.7154452,14.701625 96.4563119,15.445375 95.9380452,16.026625 C95.3947415,16.625375 94.6736748,16.925375 93.776097,16.925375 C92.9085637,16.925375 92.2187933,16.637875 91.7055341,16.064125 C91.1922748,15.490375 90.9356452,14.766625 90.9356452,13.892875 C90.9356452,12.980375 91.1997859,12.232875 91.7293193,11.650375 C92.2601044,11.067875 92.9749119,10.777875 93.8712378,10.777875 C94.740023,10.777875 95.4335489,11.064125 95.9618304,11.637875 C96.463823,12.196625 96.7154452,12.915375 96.7154452,13.796625" id="Fill-36" fill="#FFFFFF" mask="url(#mask-5)"></path>
                <path d="M101.703199,14.76625 L101.703199,13.8575 C100.256058,13.8325 99.5324874,14.22875 99.5324874,15.045 C99.5324874,15.3525 99.6151096,15.5825 99.7841096,15.73625 C99.9531096,15.89 100.167176,15.96625 100.425058,15.96625 C100.712984,15.96625 100.982132,15.87625 101.226243,15.69375 C101.472858,15.5125 101.625584,15.28 101.680665,14.9975 C101.695687,14.9325 101.703199,14.855 101.703199,14.76625 M103.065213,16.79125 L101.885969,16.79125 L101.788324,16.1125 L101.752021,16.1125 C101.348924,16.65375 100.774324,16.925 100.028221,16.925 C99.4711467,16.925 99.02048,16.74625 98.6812281,16.39125 C98.3732726,16.0675 98.2192948,15.6675 98.2192948,15.19125 C98.2192948,14.47125 98.5197393,13.9225 99.1231319,13.54125 C99.7277763,13.1625 100.576532,12.97625 101.669399,12.98375 L101.669399,12.875 C101.669399,12.09875 101.260043,11.71125 100.443836,11.71125 C99.8617244,11.71125 99.3484652,11.85625 98.9065615,12.1475 L98.639917,11.28625 C99.1869763,10.9475 99.8642281,10.7775 100.664161,10.7775 C102.206443,10.7775 102.978836,11.59 102.978836,13.215 L102.978836,15.385 C102.978836,15.975 103.00888,16.44375 103.065213,16.79125" id="Fill-37" fill="#FFFFFF" mask="url(#mask-5)"></path>
                <path d="M109.16048,14.306 L109.16048,13.3235 C109.16048,13.1535 109.147961,13.016 109.124176,12.911 C109.050317,12.596 108.891332,12.331 108.649724,12.11725 C108.405613,11.9035 108.111428,11.796 107.772176,11.796 C107.282702,11.796 106.898384,11.98975 106.617969,12.3785 C106.338806,12.766 106.197347,13.2635 106.197347,13.8685 C106.197347,14.451 106.331295,14.92475 106.600443,15.2885 C106.884613,15.676 107.26768,15.86975 107.747139,15.86975 C108.177776,15.86975 108.522036,15.7085 108.783673,15.38475 C109.035295,15.086 109.16048,14.726 109.16048,14.306 M110.519991,16.791 L109.355769,16.791 L109.294428,15.846 L109.258124,15.846 C108.886324,16.56475 108.252887,16.92475 107.364073,16.92475 C106.651769,16.92475 106.060895,16.646 105.59145,16.0885 C105.122006,15.531 104.886658,14.80725 104.886658,13.91725 C104.886658,12.9635 105.140784,12.19225 105.651539,11.60225 C106.146021,11.05225 106.751917,10.77725 107.472984,10.77725 C108.265406,10.77725 108.821228,11.04475 109.136695,11.57725 L109.16048,11.57725 L109.16048,8.19475 L110.473673,8.19475 L110.473673,15.2035 C110.473673,15.77725 110.488695,16.306 110.519991,16.791" id="Fill-38" fill="#FFFFFF" mask="url(#mask-5)"></path>
                <path d="M120.380703,13.839125 C120.380703,13.295375 120.263029,12.829125 120.028933,12.440375 C119.752273,11.970375 119.361696,11.735375 118.849688,11.735375 C118.32391,11.735375 117.923318,11.970375 117.646659,12.440375 C117.412562,12.829125 117.294888,13.304125 117.294888,13.862875 C117.294888,14.406625 117.412562,14.872875 117.646659,15.261625 C117.930829,15.731625 118.326414,15.966625 118.838421,15.966625 C119.339162,15.966625 119.732244,15.727875 120.016414,15.249125 C120.258021,14.852875 120.380703,14.382875 120.380703,13.839125 M121.740214,13.796625 C121.740214,14.701625 121.481081,15.445375 120.962814,16.026625 C120.41951,16.625375 119.700947,16.925375 118.800866,16.925375 C117.935836,16.925375 117.246066,16.637875 116.730303,16.064125 C116.217044,15.490375 115.960414,14.766625 115.960414,13.892875 C115.960414,12.980375 116.224555,12.232875 116.75534,11.650375 C117.284873,11.067875 117.999681,10.777875 118.89851,10.777875 C119.764792,10.777875 120.460821,11.064125 120.986599,11.637875 C121.488592,12.196625 121.740214,12.915375 121.740214,13.796625" id="Fill-39" fill="#FFFFFF" mask="url(#mask-5)"></path>
                <path d="M128.794024,16.791375 L127.483335,16.791375 L127.483335,13.416375 C127.483335,12.376375 127.08775,11.856375 126.292824,11.856375 C125.903498,11.856375 125.588031,11.998875 125.346424,12.285125 C125.104816,12.571375 124.982135,12.908875 124.982135,13.296375 L124.982135,16.791375 L123.668942,16.791375 L123.668942,12.583875 C123.668942,12.066375 123.655172,11.505125 123.622624,10.898875 L124.774327,10.898875 L124.835668,11.818875 L124.871972,11.818875 C125.02595,11.533875 125.253787,11.296375 125.551727,11.108875 C125.908505,10.887625 126.305342,10.777625 126.742239,10.777625 C127.293053,10.777625 127.749979,10.955125 128.114268,11.311375 C128.56869,11.747625 128.794024,12.397625 128.794024,13.262625 L128.794024,16.791375 Z" id="Fill-40" fill="#FFFFFF" mask="url(#mask-5)"></path>
                <path d="M137.622959,11.8805 L136.178322,11.8805 L136.178322,14.743 C136.178322,15.4705 136.434952,15.83425 136.943204,15.83425 C137.178552,15.83425 137.373841,15.813 137.527819,15.773 L137.561619,16.76675 C137.302485,16.86425 136.963233,16.913 136.542611,16.913 C136.024344,16.913 135.619996,16.75425 135.329567,16.4405 C135.036633,16.12425 134.891419,15.5955 134.891419,14.85175 L134.891419,11.8805 L134.028893,11.8805 L134.028893,10.898 L134.891419,10.898 L134.891419,9.81925 L136.178322,9.43175 L136.178322,10.898 L137.622959,10.898 L137.622959,11.8805 Z" id="Fill-41" fill="#FFFFFF" mask="url(#mask-5)"></path>
                <path d="M144.56936,16.791375 L143.256167,16.791375 L143.256167,13.441375 C143.256167,12.385125 142.860582,11.856375 142.06816,11.856375 C141.45976,11.856375 141.044145,12.162625 140.816308,12.776375 C140.777501,12.905125 140.754967,13.062625 140.754967,13.247625 L140.754967,16.791375 L139.444279,16.791375 L139.444279,8.195125 L140.754967,8.195125 L140.754967,11.746375 L140.780004,11.746375 C141.193116,11.100125 141.78399,10.777625 142.552627,10.777625 C143.094679,10.777625 143.545345,10.955125 143.902123,11.311375 C144.34653,11.755125 144.56936,12.413875 144.56936,13.287625 L144.56936,16.791375 Z" id="Fill-42" fill="#FFFFFF" mask="url(#mask-5)"></path>
                <path d="M150.481356,13.226875 C150.49137,12.838125 150.404993,12.503125 150.22723,12.220625 C149.999393,11.856875 149.65263,11.674375 149.183185,11.674375 C148.755052,11.674375 148.405785,11.851875 148.139141,12.208125 C147.921319,12.491875 147.792378,12.830625 147.749815,13.226875 L150.481356,13.226875 Z M151.733207,13.565625 C151.733207,13.800625 151.715681,13.998125 151.684385,14.160625 L147.749815,14.160625 C147.767341,14.741875 147.955119,15.186875 148.319407,15.494375 C148.6524,15.769375 149.083037,15.906875 149.608815,15.906875 C150.190926,15.906875 150.720459,15.813125 151.199919,15.628125 L151.405222,16.536875 C150.845644,16.779375 150.188422,16.900625 149.424793,16.900625 C148.510941,16.900625 147.792378,16.631875 147.271607,16.094375 C146.748333,15.556875 146.4892,14.835625 146.4892,13.929375 C146.4892,13.040625 146.730807,12.300625 147.217778,11.710625 C147.72603,11.080625 148.413296,10.765625 149.28083,10.765625 C150.129585,10.765625 150.774289,11.080625 151.209933,11.710625 C151.5592,12.213125 151.733207,12.830625 151.733207,13.565625 Z" id="Fill-43" fill="#FFFFFF" mask="url(#mask-5)"></path>
            </g>
        </g>
    </g>
</svg>