<?xml version="1.0" encoding="UTF-8"?>
<svg width="60px" height="60px" viewBox="0 0 60 60" version="1.1" xmlns="http://www.w3.org/2000/svg" xmlns:xlink="http://www.w3.org/1999/xlink">
    <!-- Generator: sketchtool 52.5 (67469) - http://www.bohemiancoding.com/sketch -->
    <title>23909CDA-6C74-46D8-A6CA-468508F491FA</title>
    <desc>Created with sketchtool.</desc>
    <g id="Page-1" stroke="none" stroke-width="1" fill="none" fill-rule="evenodd">
        <g id="05-Kazoops-website-design-system" transform="translate(-1020.000000, -2320.000000)">
            <g id="arrow-up-hover" transform="translate(1050.000000, 2350.000000) rotate(-180.000000) translate(-1050.000000, -2350.000000) translate(1020.000000, 2320.000000)">
                <circle id="Oval" fill="#FFFFFF" fill-rule="nonzero" cx="30" cy="30" r="30"></circle>
                <path d="M30.0246698,18.3805973 C29.4085175,18.8918915 31.1202966,25.7473181 30.8601679,25.8363023 C30.5996718,25.9249218 14.2751264,23.6817188 13.7581757,24.133204 C13.2415924,24.5846891 14.5539931,37.1128555 15.2168069,37.4523811 C15.8796207,37.7919067 31.0446094,33.0250548 31.5369434,33.2376686 C32.0292774,33.4502824 31.165121,40.3859407 31.8099316,40.7396892 C32.4547421,41.0934376 46.7430824,28.0536123 46.7467565,27.431088 C46.7504306,26.8085636 30.6408221,17.8693031 30.0246698,18.3805973" id="Fill-1" fill="#E73E51" transform="translate(30.193636, 29.553121) rotate(-270.000000) translate(-30.193636, -29.553121) "></path>
            </g>
        </g>
    </g>
</svg>