<?xml version="1.0" encoding="UTF-8"?>
<svg width="122px" height="86px" viewBox="0 0 122 86" version="1.1" xmlns="http://www.w3.org/2000/svg" xmlns:xlink="http://www.w3.org/1999/xlink">
    <!-- Generator: sketchtool 52.5 (67469) - http://www.bohemiancoding.com/sketch -->
    <title>4E6076FA-BB25-443C-A424-73486507A5E1@3x</title>
    <desc>Created with sketchtool.</desc>
    <g id="Page-1" stroke="none" stroke-width="1" fill="none" fill-rule="evenodd">
        <g id="05-Kazoops-website-design-system" transform="translate(-139.000000, -2320.000000)" fill="#231F20">
            <path d="M260.730724,2359.14863 C260.491524,2358.23223 258.560724,2358.23983 257.883124,2358.99623 C257.381524,2359.55703 253.939124,2362.43183 252.187924,2363.88463 C253.409524,2360.40703 258.051124,2354.26023 258.051124,2354.26023 L258.023124,2354.25783 C258.164724,2354.12543 258.249924,2353.91903 257.968324,2353.63703 C257.437124,2353.10623 256.799524,2352.99903 255.967924,2353.20623 C253.752324,2353.75583 242.774724,2362.92023 242.774724,2362.92023 C242.774724,2362.92023 240.968724,2364.35463 240.755924,2363.82343 C240.576724,2363.37543 248.780724,2353.31383 251.373124,2350.15103 C253.058324,2348.85343 252.307124,2351.17303 252.307124,2351.17303 C252.307124,2351.17303 251.617524,2353.40383 252.679524,2353.19103 C253.741524,2352.97863 255.419524,2351.75743 256.519924,2349.20743 C256.653924,2348.89623 256.724324,2348.60383 256.745524,2348.32983 C257.059924,2346.82823 257.316724,2343.93183 254.591924,2344.01063 C250.918724,2344.11703 249.053524,2345.72423 247.579524,2347.05583 C245.357124,2349.43463 241.844324,2353.19503 241.844324,2353.19503 L229.479924,2367.03103 C229.479924,2367.03103 227.875124,2368.65783 228.512724,2367.38263 C229.150724,2366.10783 235.573524,2352.98263 235.573524,2352.98263 C235.573524,2352.98263 236.397124,2351.30063 236.954724,2349.72063 C237.512324,2348.14063 236.773924,2344.92183 235.286724,2344.39063 C233.799924,2343.85943 233.236724,2344.74863 231.695924,2346.02343 C231.118324,2346.50143 227.921924,2349.31903 224.365124,2353.49423 C223.987924,2353.93743 223.605124,2354.39103 223.219124,2354.85183 L223.602724,2354.14103 C225.144324,2351.67503 236.189124,2332.12623 236.189124,2332.12623 C236.189124,2332.12623 239.408324,2326.59663 239.801924,2325.32663 C241.074724,2321.21863 239.162324,2319.30623 237.145524,2320.22743 C236.241924,2320.12063 232.944724,2325.77423 231.565924,2327.38063 C229.783124,2329.45863 217.781524,2344.97463 214.168724,2349.65063 C215.930324,2345.41783 216.913124,2341.52783 214.989124,2340.99983 C212.342324,2340.27303 210.163524,2342.67303 208.848324,2343.62903 C207.533524,2344.58543 202.788724,2349.79183 202.788724,2349.79183 C202.788724,2349.79183 204.127124,2347.41023 204.815924,2346.28543 C205.504724,2345.16063 206.199924,2342.16223 205.721524,2341.16663 C205.243524,2340.17023 203.221924,2339.80463 202.155124,2340.48183 C201.087924,2341.15863 187.458724,2359.51783 183.792324,2364.26783 C182.693124,2365.69143 181.189124,2367.69823 179.622724,2369.80903 L179.688324,2369.60663 C184.452724,2360.33583 183.779124,2360.84063 187.179124,2353.45663 C188.567924,2350.43983 187.763924,2349.13823 187.657124,2348.78223 C187.338324,2347.71983 185.957124,2347.82583 184.363524,2349.31343 C182.769924,2350.80143 181.538724,2351.98063 180.445524,2353.23143 C179.352324,2354.48183 169.859524,2364.61263 169.859524,2364.61263 C169.859524,2364.61263 176.713924,2349.95143 177.563524,2348.56983 C178.413524,2347.18903 176.594324,2345.44863 175.744324,2345.34223 C174.894324,2345.23623 174.110724,2346.45743 174.110724,2346.45743 C174.110724,2346.45743 165.041124,2355.51103 160.735524,2359.98663 C156.420324,2364.47183 154.167124,2368.07143 149.860724,2370.84663 C148.265124,2371.61503 147.448724,2370.08343 147.290324,2368.46223 C147.130724,2366.83223 148.535124,2362.08583 153.214324,2354.30743 C156.830724,2348.29663 160.627924,2343.93703 163.566724,2340.59503 C164.138724,2340.21583 166.289124,2338.54343 166.157124,2341.24583 C166.086724,2342.69703 166.433924,2345.08223 168.706724,2344.34383 C170.877524,2343.63943 174.603924,2339.81183 174.603924,2335.98703 C174.603924,2332.42823 170.593924,2332.01783 170.035124,2331.97783 C168.835524,2331.68063 166.837924,2331.98263 165.724724,2332.31383 C162.669524,2333.22423 153.213124,2340.76823 147.291124,2350.16343 C141.369524,2359.55903 139.089924,2364.55903 139.003124,2370.25703 C138.920724,2375.64903 140.473524,2377.78783 143.058724,2378.25983 C147.585524,2379.08703 149.010324,2377.80503 150.035524,2377.08663 C150.578324,2376.70583 151.021124,2376.27223 151.377524,2375.81463 C154.577124,2372.51903 167.076724,2358.15743 167.076724,2358.15743 C167.076724,2358.15743 165.725124,2361.33423 164.219524,2365.62143 C162.864724,2369.47783 163.208324,2368.97983 162.886324,2369.73343 C162.248724,2371.22063 162.184324,2375.01303 164.669124,2374.89103 C166.675924,2374.79303 166.973124,2373.74103 169.777124,2370.70503 C172.453524,2367.80743 178.174324,2362.11623 178.174324,2362.11623 C178.174324,2362.11623 172.068724,2376.86583 170.129124,2380.50383 C168.190724,2384.14103 164.010324,2389.34863 164.496324,2393.05743 C164.983124,2396.76623 168.525124,2394.85423 169.430324,2393.02343 C170.103924,2391.65983 174.051524,2383.67423 176.022324,2379.68743 C178.553124,2376.12023 182.723924,2370.33543 186.023124,2366.21983 C190.423924,2360.73103 191.371124,2359.61103 192.438324,2358.30983 C197.379124,2352.28823 195.364324,2355.44903 193.850324,2358.23823 C193.352324,2359.15543 191.550324,2362.93463 187.550724,2371.22103 C184.889124,2376.73503 177.491524,2389.84823 174.862324,2396.22303 C173.204724,2400.24183 170.922724,2404.77783 173.229124,2405.47183 C175.535124,2406.16543 177.216724,2404.24943 179.038324,2400.46703 C180.860324,2396.68503 192.279524,2372.65143 194.775524,2367.90663 C197.905124,2361.95703 200.983124,2355.76823 203.435124,2352.71343 C205.887124,2349.65863 209.268724,2346.29503 209.929124,2346.00623 C210.885524,2345.58823 207.841124,2352.38983 206.993924,2354.20063 C206.146724,2356.01183 205.083924,2358.07783 202.390324,2361.41983 C202.191124,2361.66743 202.009924,2361.89583 201.840724,2362.11263 C201.840324,2362.11303 201.839524,2362.11383 201.838724,2362.11423 C199.395124,2364.18623 197.537924,2366.22903 197.141924,2366.76063 C196.746324,2367.29183 197.218724,2367.94583 197.962724,2368.24823 C198.706724,2368.55023 200.006724,2368.44383 200.006724,2368.44383 C200.310724,2368.44383 200.701124,2368.31503 201.159524,2368.07903 C201.462324,2367.96783 201.787124,2367.83223 202.142724,2367.66343 C204.097124,2366.73503 205.288324,2365.40303 206.340324,2363.89663 C209.382724,2360.93383 212.792324,2357.01223 215.227924,2353.66943 C217.687524,2350.29343 222.042324,2345.13983 225.579124,2341.05663 C222.139524,2347.99743 216.930324,2358.63183 216.930324,2358.63183 L206.623924,2376.48143 C205.986724,2377.33183 206.093124,2378.81863 206.889524,2379.03143 C207.686724,2379.24383 208.961524,2378.65903 210.289524,2377.54383 C210.999524,2376.94783 211.989124,2375.42623 212.756724,2374.13863 C215.090724,2370.92503 224.976724,2357.41503 230.347524,2351.67343 L229.919924,2353.03423 C229.433924,2354.57863 221.565524,2369.60983 220.734324,2372.63823 C219.902324,2375.66583 222.133924,2375.71903 222.133924,2375.71903 C222.133924,2375.71903 224.152324,2375.87863 225.268324,2374.92223 C225.869524,2374.40663 230.638724,2368.99863 234.908324,2364.12183 C234.269524,2365.72863 234.019124,2367.13703 234.511524,2368.01223 C236.423524,2371.41223 240.437924,2368.46223 240.437924,2368.46223 L250.690724,2360.14423 C249.637524,2361.65343 248.601124,2363.11343 247.868324,2364.08623 C245.685524,2366.98423 244.857124,2370.17943 246.344724,2371.02983 C247.093524,2371.45783 249.395524,2370.22263 251.168724,2368.89623 C251.007524,2369.08063 258.763124,2362.93423 259.515124,2362.01743 C260.059124,2361.35343 260.969924,2360.06463 260.730724,2359.14863" id="Cypha-Logo"></path>
        </g>
    </g>
</svg>