<?xml version="1.0" encoding="UTF-8"?>
<svg width="15px" height="16px" viewBox="0 0 15 16" version="1.1" xmlns="http://www.w3.org/2000/svg" xmlns:xlink="http://www.w3.org/1999/xlink">
    <!-- Generator: sketchtool 52.5 (67469) - http://www.bohemiancoding.com/sketch -->
    <title>1925A7DC-EBD9-4DC3-AAE1-C9F68B0A912D</title>
    <desc>Created with sketchtool.</desc>
    <g id="Page-1" stroke="none" stroke-width="1" fill="none" fill-rule="evenodd">
        <g id="05-Kazoops-website-design-system" transform="translate(-1273.000000, -2243.000000)" fill="#FFFFFF">
            <path d="M1284.50355,2245.76953 C1284.00666,2245.76953 1283.60354,2246.19952 1283.60354,2246.72954 C1283.60354,2247.25957 1284.00666,2247.68956 1284.50355,2247.68956 C1285.00121,2247.68956 1285.40357,2247.25957 1285.40357,2246.72954 C1285.40357,2246.19952 1285.00121,2245.76953 1284.50355,2245.76953 M1280.50038,2253.66667 C1279.11935,2253.66667 1278,2252.4727 1278,2250.9996 C1278,2249.5273 1279.11935,2248.33333 1280.50038,2248.33333 C1281.88065,2248.33333 1283,2249.5273 1283,2250.9996 C1283,2252.4727 1281.88065,2253.66667 1280.50038,2253.66667 M1280.50038,2246.8917 C1278.37286,2246.8917 1276.64922,2248.73105 1276.64922,2250.9996 C1276.64922,2253.26895 1278.37286,2255.1075 1280.50038,2255.1075 C1282.62714,2255.1075 1284.35154,2253.26895 1284.35154,2250.9996 C1284.35154,2248.73105 1282.62714,2246.8917 1280.50038,2246.8917 M1280.50038,2243 C1278.46362,2243 1278.20799,2243.00887 1277.40781,2243.0484 C1276.60989,2243.08713 1276.06459,2243.22185 1275.58735,2243.42031 C1275.09424,2243.62441 1274.67599,2243.8979 1274.25926,2244.34241 C1273.84178,2244.78773 1273.58539,2245.23385 1273.39404,2245.75984 C1273.20874,2246.26809 1273.08168,2246.84975 1273.04538,2247.70166 C1273.00908,2248.55438 1273,2248.82706 1273,2250.9996 C1273,2253.17214 1273.00908,2253.44481 1273.04538,2254.29834 C1273.08168,2255.14945 1273.20874,2255.7311 1273.39404,2256.24016 C1273.58539,2256.76615 1273.84178,2257.21227 1274.25926,2257.65678 C1274.67599,2258.1021 1275.09424,2258.37559 1275.58735,2258.57969 C1276.06459,2258.77734 1276.60989,2258.91287 1277.40781,2258.9516 C1278.20799,2258.99032 1278.46362,2259 1280.50038,2259 C1282.53714,2259 1282.79277,2258.99032 1283.59219,2258.9516 C1284.39086,2258.91287 1284.93541,2258.77734 1285.41265,2258.57969 C1285.90652,2258.37559 1286.32401,2258.1021 1286.74074,2257.65678 C1287.15822,2257.21227 1287.41461,2256.76615 1287.60596,2256.24016 C1287.79201,2255.7311 1287.91832,2255.14945 1287.95462,2254.29834 C1287.99168,2253.44481 1288,2253.17214 1288,2250.9996 C1288,2248.82706 1287.99168,2248.55438 1287.95462,2247.70166 C1287.91832,2246.84975 1287.79201,2246.26809 1287.60596,2245.75984 C1287.41461,2245.23385 1287.15822,2244.78773 1286.74074,2244.34241 C1286.32401,2243.8979 1285.90652,2243.62441 1285.41265,2243.42031 C1284.93541,2243.22185 1284.39086,2243.08713 1283.59219,2243.0484 C1282.79277,2243.00887 1282.53714,2243 1280.50038,2243 M1280.50038,2244.44164 C1282.5031,2244.44164 1282.73983,2244.44971 1283.53093,2244.48843 C1284.26229,2244.52392 1284.65936,2244.65381 1284.92331,2244.76353 C1285.27348,2244.90874 1285.52307,2245.08219 1285.78551,2245.36212 C1286.04795,2245.64206 1286.21056,2245.90828 1286.34669,2246.2818 C1286.44955,2246.56335 1286.57208,2246.9877 1286.6046,2247.767 C1286.6409,2248.61085 1286.64846,2248.86336 1286.64846,2250.9996 C1286.64846,2253.13583 1286.6409,2253.38915 1286.6046,2254.23219 C1286.57208,2255.0123 1286.44955,2255.43584 1286.34669,2255.7182 C1286.21056,2256.09091 1286.04795,2256.35794 1285.78551,2256.63788 C1285.52307,2256.91781 1285.27348,2257.09126 1284.92331,2257.23647 C1284.65936,2257.34619 1284.26229,2257.47608 1283.53093,2257.51157 C1282.73983,2257.55029 1282.5031,2257.55836 1280.50038,2257.55836 C1278.49766,2257.55836 1278.26017,2257.55029 1277.46982,2257.51157 C1276.73847,2257.47608 1276.3414,2257.34619 1276.07669,2257.23647 C1275.72652,2257.09126 1275.47693,2256.91781 1275.21449,2256.63788 C1274.95205,2256.35794 1274.7902,2256.09091 1274.65406,2255.7182 C1274.5512,2255.43584 1274.42868,2255.0123 1274.3954,2254.23219 C1274.3591,2253.38915 1274.35154,2253.13583 1274.35154,2250.9996 C1274.35154,2248.86336 1274.3591,2248.61085 1274.3954,2247.767 C1274.42868,2246.9877 1274.5512,2246.56335 1274.65406,2246.2818 C1274.7902,2245.90828 1274.95205,2245.64206 1275.21449,2245.36212 C1275.47693,2245.08219 1275.72652,2244.90874 1276.07669,2244.76353 C1276.3414,2244.65381 1276.73847,2244.52392 1277.46982,2244.48843 C1278.26017,2244.44971 1278.49766,2244.44164 1280.50038,2244.44164" id="insta"></path>
        </g>
    </g>
</svg>