<?xml version="1.0" encoding="UTF-8"?>
<svg width="14px" height="13px" viewBox="0 0 14 13" version="1.1" xmlns="http://www.w3.org/2000/svg" xmlns:xlink="http://www.w3.org/1999/xlink">
    <!-- Generator: sketchtool 52.5 (67469) - http://www.bohemiancoding.com/sketch -->
    <title>FA1F6A04-5AFF-47B6-93B8-4603C3D1CA39</title>
    <desc>Created with sketchtool.</desc>
    <g id="Page-1" stroke="none" stroke-width="1" fill="none" fill-rule="evenodd">
        <g id="05-Kazoops-website-design-system" transform="translate(-1232.000000, -2245.000000)" fill="#FFFFFF">
            <path d="M1246,2246.53904 C1245.48533,2246.79983 1244.93068,2246.97674 1244.35059,2247.05565 C1244.94377,2246.64867 1245.39883,2246.00581 1245.614,2245.24003 C1245.05862,2245.61545 1244.44364,2245.8887 1243.79012,2246.03571 C1243.26601,2245.39784 1242.51872,2245 1241.69292,2245 C1240.10603,2245 1238.82081,2246.4701 1238.82081,2248.28156 C1238.82081,2248.53821 1238.84553,2248.78987 1238.89496,2249.0299 C1236.50844,2248.89203 1234.39088,2247.58555 1232.97482,2245.59967 C1232.72693,2246.08472 1232.58591,2246.64867 1232.58591,2247.25 C1232.58591,2248.3887 1233.09331,2249.39369 1233.86313,2249.98173 C1233.39208,2249.96512 1232.9501,2249.81728 1232.56192,2249.5706 L1232.56192,2249.61296 C1232.56192,2251.20183 1233.552,2252.52907 1234.8663,2252.82973 C1234.62568,2252.90532 1234.37125,2252.94601 1234.10956,2252.94601 C1233.92492,2252.94601 1233.74464,2252.92525 1233.56872,2252.88704 C1233.9351,2254.19103 1234.99569,2255.14037 1236.25328,2255.16611 C1235.26974,2256.04734 1234.03105,2256.5706 1232.68477,2256.5706 C1232.45288,2256.5706 1232.2239,2256.55648 1232,2256.52492 C1233.27068,2257.45598 1234.78052,2258 1236.40231,2258 C1241.68565,2258 1244.57521,2252.99834 1244.57521,2248.66196 C1244.57521,2248.5191 1244.5723,2248.37791 1244.56722,2248.23754 C1245.12841,2247.77492 1245.61545,2247.19684 1246,2246.53904" id="twitter"></path>
        </g>
    </g>
</svg>